<?xml version="1.0" encoding="utf-8"?>
<!-- Generator: Adobe Illustrator 16.0.4, SVG Export Plug-In . SVG Version: 6.00 Build 0)  -->
<!DOCTYPE svg PUBLIC "-//W3C//DTD SVG 1.1//EN" "http://www.w3.org/Graphics/SVG/1.1/DTD/svg11.dtd">
<svg version="1.1" id="Laag_1" xmlns="http://www.w3.org/2000/svg" xmlns:xlink="http://www.w3.org/1999/xlink" x="0px" y="0px"
	 width="841.89px" height="371.666px" viewBox="0 0 841.89 371.666" enable-background="new 0 0 841.89 371.666"
	 xml:space="preserve">
<g>
	<path fill="#00C18B" d="M254.168,300.658v-56.046h4.883v20.714c0.978-1.52,2.207-2.664,3.682-3.425
		c1.475-0.757,2.983-1.136,4.526-1.136c1.996,0,3.725,0.799,5.177,2.407c1.455,1.605,2.187,3.875,2.187,6.806v30.68h-4.954v-30.42
		c0-3.904-1.368-5.86-4.105-5.86c-1.058,0-2.204,0.377-3.418,1.121c-1.215,0.751-2.243,1.699-3.094,2.854v32.305H254.168z"/>
	<path fill="#00C18B" d="M281.785,282.682v-5.439c0.02-2.715,0.22-5.064,0.584-7.054c0.374-1.981,0.854-3.574,1.451-4.769
		c0.598-1.192,1.365-2.144,2.313-2.851c0.945-0.702,1.912-1.183,2.914-1.432c0.998-0.251,2.169-0.372,3.514-0.372
		c3.498,0,6.011,1.236,7.543,3.709c1.528,2.477,2.293,6.381,2.293,11.725c0,1.633-0.02,2.965-0.064,4.01h-15.634v5.957
		c0,2.564,0.124,4.663,0.378,6.299c0.247,1.643,0.644,2.873,1.184,3.701c0.544,0.821,1.139,1.379,1.793,1.655
		c0.65,0.287,1.478,0.428,2.476,0.428c1.456,0,2.673-0.73,3.665-2.2c0.984-1.461,1.489-3.914,1.512-7.346h4.56
		c-0.127,1.479-0.301,2.79-0.521,3.941c-0.217,1.155-0.557,2.303-1.021,3.455c-0.474,1.147-1.045,2.102-1.732,2.864
		c-0.685,0.764-1.565,1.378-2.654,1.855c-1.085,0.48-2.333,0.717-3.742,0.717c-2.76,0-4.899-0.551-6.432-1.642
		c-1.532-1.099-2.657-3.007-3.371-5.733C282.079,291.437,281.741,287.608,281.785,282.682z M286.738,277.795h10.811
		c-0.027-0.867-0.027-1.746,0-2.64c0.02-0.885,0.01-1.782-0.037-2.684c-0.043-0.9-0.1-1.762-0.174-2.586
		c-0.08-0.828-0.223-1.593-0.443-2.298c-0.217-0.707-0.488-1.321-0.811-1.842c-0.328-0.521-0.774-0.932-1.339-1.237
		c-0.564-0.301-1.218-0.458-1.956-0.458c-1.191,0-2.177,0.218-2.944,0.653c-0.771,0.435-1.365,0.942-1.795,1.53
		c-0.42,0.583-0.73,1.575-0.921,2.963c-0.2,1.389-0.311,2.614-0.34,3.665C286.748,273.914,286.738,275.56,286.738,277.795z"/>
	<path fill="#00C18B" d="M310.706,291.439v-27.062h-5.31v-2.733h5.31v-13.846h4.883v13.846h6.251v2.733h-6.251v26.835
		c0,0.935,0.013,1.665,0.03,2.199c0.023,0.534,0.093,1.108,0.213,1.726c0.12,0.621,0.294,1.079,0.521,1.382
		c0.23,0.304,0.558,0.562,0.978,0.769c0.428,0.206,0.948,0.307,1.583,0.307c1.058,0,2.016-0.083,2.864-0.258v3.353
		c-1.456,0.373-2.864,0.557-4.236,0.557c-1.215,0-2.26-0.19-3.124-0.57c-0.872-0.381-1.539-0.854-2.003-1.42
		c-0.467-0.563-0.838-1.311-1.108-2.245c-0.271-0.935-0.437-1.806-0.504-2.62C310.736,293.576,310.706,292.595,310.706,291.439z"/>
	<path fill="#00C18B" d="M355.418,300.658l-0.618-4.719c-1.044,1.822-2.326,3.211-3.861,4.169c-1.528,0.954-2.987,1.428-4.376,1.428
		c-2.022,0-3.811-0.797-5.373-2.39c-1.562-1.599-2.347-3.688-2.347-6.275c0-0.693,0.01-1.251,0.034-1.672
		c0.02-0.427,0.077-0.975,0.18-1.646c0.093-0.674,0.234-1.241,0.417-1.691c0.19-0.461,0.457-1.019,0.817-1.679
		c0.357-0.662,0.798-1.248,1.318-1.76c0.521-0.507,1.175-1.098,1.956-1.759c0.781-0.661,1.679-1.291,2.704-1.886
		c1.018-0.598,2.216-1.238,3.598-1.926c1.379-0.682,2.904-1.371,4.576-2.066v-0.326c0-2.217-0.097-4.109-0.297-5.685
		c-0.193-1.572-0.434-2.787-0.71-3.645c-0.287-0.858-0.651-1.525-1.095-2.006c-0.444-0.478-0.861-0.774-1.251-0.892
		c-0.391-0.12-0.868-0.184-1.432-0.184c-0.591,0-1.111,0.083-1.565,0.247c-0.457,0.16-0.944,0.478-1.468,0.94
		c-0.518,0.472-0.955,1.229-1.298,2.284c-0.347,1.055-0.564,2.372-0.654,3.957v0.229h-5.08c0.264-3.411,1.265-6.089,3.014-8.031
		c1.749-1.942,4.042-2.911,6.889-2.911c1.585,0,2.987,0.254,4.199,0.763c1.218,0.514,2.176,1.16,2.884,1.952
		c0.705,0.793,1.271,1.745,1.709,2.854c0.434,1.105,0.728,2.179,0.881,3.224c0.147,1.038,0.227,2.16,0.227,3.355v18.753
		c0,1.369,0.047,2.805,0.144,4.304c0.101,1.498,0.204,2.646,0.311,3.45l0.134,1.238H355.418z M354.443,292.712v-13.741
		c-1.585,1.104-2.833,1.995-3.745,2.666c-0.915,0.675-1.876,1.463-2.887,2.36c-1.008,0.904-1.766,1.726-2.276,2.463
		c-0.514,0.737-0.935,1.579-1.271,2.523c-0.337,0.941-0.504,1.936-0.504,2.977c0,1.869,0.39,3.255,1.175,4.156
		c0.781,0.901,1.699,1.352,2.767,1.352c1.238,0,2.49-0.447,3.761-1.338C352.73,295.241,353.726,294.101,354.443,292.712z"/>
	<path fill="#00C18B" d="M366.165,282.161v-2.02c0-1.735,0.01-3.07,0.033-3.988c0.02-0.922,0.101-2.186,0.228-3.778
		c0.13-1.599,0.32-2.837,0.57-3.731c0.25-0.885,0.638-1.909,1.159-3.058c0.517-1.155,1.145-2.026,1.885-2.623
		c0.737-0.598,1.682-1.111,2.834-1.546c1.151-0.434,2.463-0.651,3.938-0.651c1.502,0,2.821,0.24,3.958,0.731
		c1.142,0.487,2.062,1.125,2.771,1.906c0.705,0.78,1.289,1.766,1.739,2.964c0.46,1.191,0.781,2.39,0.981,3.581
		c0.19,1.192,0.337,2.561,0.42,4.105c0,0.044,0.007,0.101,0.017,0.177c0.01,0.074,0.013,0.133,0.013,0.178h-4.88v-0.294
		c-0.133-3.665-0.561-6.262-1.288-7.78c-0.728-1.52-1.969-2.283-3.732-2.283c-0.844,0-1.578,0.12-2.196,0.363
		c-0.617,0.234-1.141,0.658-1.562,1.266c-0.428,0.611-0.768,1.302-1.025,2.072c-0.26,0.768-0.47,1.812-0.617,3.124
		c-0.157,1.315-0.254,2.664-0.297,4.053c-0.043,1.392-0.067,3.127-0.067,5.213v2.02c0,6.101,0.381,10.304,1.145,12.62
		c0.758,2.31,2.3,3.468,4.619,3.468c1.719,0,2.938-0.781,3.668-2.347c0.725-1.562,1.179-4.241,1.352-8.04v-0.33h4.917v0.229
		c-0.067,1.648-0.19,3.104-0.375,4.349c-0.187,1.245-0.504,2.49-0.944,3.726c-0.447,1.238-1.025,2.256-1.729,3.047
		c-0.704,0.795-1.639,1.435-2.8,1.919c-1.162,0.494-2.526,0.734-4.089,0.734c-1.302,0-2.473-0.126-3.518-0.391
		c-1.042-0.256-1.922-0.69-2.646-1.302c-0.735-0.606-1.362-1.208-1.893-1.809c-0.534-0.598-0.955-1.448-1.271-2.557
		c-0.317-1.104-0.564-2.049-0.748-2.834c-0.187-0.781-0.32-1.898-0.406-3.351c-0.087-1.459-0.138-2.597-0.147-3.438
		C366.168,285.019,366.165,283.786,366.165,282.161z"/>
	<path fill="#00C18B" d="M392.183,282.161v-2.02c0-1.735,0.013-3.07,0.037-3.988c0.02-0.922,0.097-2.186,0.227-3.778
		c0.13-1.599,0.321-2.837,0.571-3.731c0.247-0.885,0.634-1.909,1.155-3.058c0.524-1.155,1.151-2.026,1.893-2.623
		c0.737-0.598,1.679-1.111,2.83-1.546c1.148-0.434,2.467-0.651,3.942-0.651c1.499,0,2.817,0.24,3.956,0.731
		c1.141,0.487,2.062,1.125,2.766,1.906c0.711,0.78,1.289,1.766,1.743,2.964c0.458,1.191,0.784,2.39,0.978,3.581
		c0.197,1.192,0.34,2.561,0.424,4.105c0,0.044,0.002,0.101,0.013,0.177c0.013,0.074,0.02,0.133,0.02,0.178h-4.883v-0.294
		c-0.129-3.665-0.563-6.262-1.292-7.78c-0.724-1.52-1.969-2.283-3.725-2.283c-0.845,0-1.582,0.12-2.199,0.363
		c-0.615,0.234-1.139,0.658-1.562,1.266c-0.424,0.611-0.769,1.302-1.028,2.072c-0.261,0.768-0.464,1.812-0.618,3.124
		c-0.153,1.315-0.25,2.664-0.294,4.053c-0.046,1.392-0.06,3.127-0.06,5.213v2.02c0,6.101,0.377,10.304,1.138,12.62
		c0.758,2.31,2.3,3.468,4.623,3.468c1.716,0,2.934-0.781,3.665-2.347c0.727-1.562,1.178-4.241,1.351-8.04v-0.33h4.914v0.229
		c-0.063,1.648-0.187,3.104-0.371,4.349c-0.187,1.245-0.504,2.49-0.941,3.726c-0.448,1.238-1.025,2.256-1.736,3.047
		c-0.701,0.795-1.635,1.435-2.793,1.919c-1.166,0.494-2.527,0.734-4.089,0.734c-1.302,0-2.477-0.126-3.518-0.391
		c-1.044-0.256-1.929-0.69-2.653-1.302c-0.728-0.606-1.358-1.208-1.889-1.809c-0.531-0.598-0.958-1.448-1.269-2.557
		c-0.317-1.104-0.564-2.049-0.754-2.834c-0.184-0.781-0.317-1.898-0.404-3.351c-0.086-1.459-0.137-2.597-0.146-3.438
		C392.189,285.019,392.183,283.786,392.183,282.161z"/>
	<path fill="#00C18B" d="M418.827,282.682v-5.439c0.021-2.715,0.217-5.064,0.584-7.054c0.371-1.981,0.852-3.574,1.452-4.769
		c0.594-1.192,1.365-2.144,2.313-2.851c0.94-0.702,1.915-1.183,2.91-1.432c0.997-0.251,2.173-0.372,3.521-0.372
		c3.494,0,6.004,1.236,7.536,3.709c1.535,2.477,2.296,6.381,2.296,11.725c0,1.633-0.02,2.965-0.065,4.01h-15.631v5.957
		c0,2.564,0.126,4.663,0.373,6.299c0.251,1.643,0.648,2.873,1.188,3.701c0.544,0.821,1.142,1.379,1.789,1.655
		c0.654,0.287,1.479,0.428,2.477,0.428c1.458,0,2.677-0.73,3.665-2.2c0.988-1.461,1.495-3.914,1.516-7.346h4.559
		c-0.13,1.479-0.304,2.79-0.521,3.941c-0.218,1.155-0.558,2.303-1.024,3.455c-0.471,1.147-1.045,2.102-1.729,2.864
		c-0.684,0.764-1.564,1.378-2.653,1.855c-1.085,0.48-2.336,0.717-3.745,0.717c-2.76,0-4.899-0.551-6.432-1.642
		c-1.532-1.099-2.653-3.007-3.371-5.733C419.121,291.437,418.784,287.608,418.827,282.682z M423.776,277.795h10.812
		c-0.023-0.867-0.023-1.746,0-2.64c0.021-0.885,0.01-1.782-0.03-2.684c-0.043-0.9-0.104-1.762-0.18-2.586
		c-0.077-0.828-0.221-1.593-0.438-2.298c-0.218-0.707-0.49-1.321-0.817-1.842s-0.771-0.932-1.335-1.237
		c-0.568-0.301-1.215-0.458-1.957-0.458c-1.188,0-2.175,0.218-2.946,0.653c-0.768,0.435-1.365,0.942-1.793,1.53
		c-0.42,0.583-0.73,1.575-0.925,2.963c-0.196,1.389-0.306,2.614-0.34,3.665C423.79,273.914,423.776,275.56,423.776,277.795z"/>
	<path fill="#00C18B" d="M446.214,300.658v-39.014h4.886v3.682c1.041-1.52,2.293-2.664,3.745-3.425
		c1.455-0.757,2.964-1.136,4.529-1.136c1.932,0,3.628,0.806,5.094,2.424c1.465,1.622,2.199,3.892,2.199,6.822v30.646h-4.95v-30.743
		c0-1.933-0.377-3.337-1.141-4.219c-0.759-0.875-1.753-1.318-2.995-1.318c-1.018,0-2.108,0.354-3.274,1.058
		c-1.165,0.708-2.229,1.67-3.207,2.888v32.335H446.214z"/>
	<path fill="#00C18B" d="M475.756,291.439v-27.062h-5.312v-2.733h5.312v-13.846h4.882v13.846h6.252v2.733h-6.252v26.835
		c0,0.935,0.011,1.665,0.033,2.199c0.024,0.534,0.088,1.108,0.211,1.726c0.119,0.621,0.294,1.079,0.521,1.382
		c0.23,0.304,0.555,0.562,0.979,0.769c0.424,0.206,0.947,0.307,1.582,0.307c1.062,0,2.016-0.083,2.863-0.258v3.353
		c-1.455,0.373-2.863,0.557-4.234,0.557c-1.216,0-2.26-0.19-3.128-0.57c-0.868-0.381-1.533-0.854-2-1.42
		c-0.471-0.563-0.837-1.311-1.104-2.245c-0.277-0.935-0.444-1.806-0.507-2.62C475.785,293.576,475.756,292.595,475.756,291.439z"/>
	<path fill="#00C18B" d="M504.899,282.161v-2.02c0-1.735,0.011-3.07,0.038-3.988c0.016-0.922,0.086-2.186,0.209-3.778
		c0.118-1.599,0.305-2.837,0.552-3.731c0.25-0.885,0.627-1.909,1.12-3.058c0.505-1.155,1.115-2.026,1.847-2.623
		c0.725-0.598,1.639-1.111,2.751-1.546c1.104-0.434,2.379-0.651,3.811-0.651c1.433,0,2.7,0.218,3.809,0.651
		c1.108,0.435,2.022,0.948,2.75,1.546c0.731,0.597,1.342,1.468,1.84,2.623c0.5,1.148,0.877,2.173,1.124,3.058
		c0.251,0.895,0.434,2.133,0.555,3.731c0.12,1.593,0.187,2.856,0.213,3.778c0.018,0.918,0.031,2.253,0.031,3.988v2.02
		c0,1.452-0.007,2.55-0.018,3.288c-0.01,0.736-0.043,1.765-0.097,3.077c-0.054,1.314-0.137,2.333-0.261,3.043
		c-0.12,0.719-0.296,1.609-0.536,2.675c-0.24,1.062-0.527,1.886-0.861,2.476c-0.337,0.581-0.768,1.232-1.289,1.937
		c-0.521,0.704-1.121,1.238-1.788,1.596c-0.678,0.356-1.477,0.66-2.395,0.911c-0.924,0.25-1.948,0.373-3.077,0.373
		c-1.131,0-2.159-0.123-3.08-0.373c-0.921-0.251-1.723-0.555-2.394-0.911c-0.675-0.357-1.268-0.892-1.792-1.596
		c-0.521-0.704-0.948-1.355-1.285-1.937c-0.338-0.59-0.625-1.414-0.865-2.476c-0.24-1.065-0.417-1.956-0.534-2.675
		c-0.119-0.71-0.209-1.729-0.263-3.043c-0.054-1.312-0.083-2.341-0.097-3.077C504.903,284.711,504.899,283.613,504.899,282.161z
		 M509.787,280.142v2.02c0,6.121,0.356,10.333,1.074,12.636c0.717,2.3,2.169,3.452,4.365,3.452c2.187,0,3.649-1.152,4.359-3.452
		c0.722-2.303,1.078-6.515,1.078-12.636v-2.02c0-2.066-0.023-3.802-0.066-5.213c-0.041-1.412-0.137-2.765-0.274-4.053
		c-0.147-1.291-0.341-2.33-0.587-3.11c-0.25-0.781-0.577-1.473-0.979-2.069c-0.4-0.595-0.892-1.019-1.465-1.266
		c-0.578-0.254-1.269-0.38-2.066-0.38c-0.808,0-1.494,0.126-2.068,0.38c-0.578,0.247-1.072,0.671-1.483,1.266
		c-0.413,0.597-0.74,1.285-0.977,2.056c-0.237,0.768-0.429,1.812-0.572,3.124c-0.144,1.315-0.229,2.664-0.276,4.053
		C509.807,276.32,509.787,278.056,509.787,280.142z"/>
	<path fill="#00C18B" d="M532.909,313.194v-51.55h4.884v3.682c1.952-3.041,4.583-4.561,7.881-4.561c0.588,0,1.118,0.047,1.599,0.144
		c0.478,0.097,1.008,0.308,1.595,0.619c0.584,0.316,1.104,0.74,1.562,1.271c0.457,0.534,0.911,1.269,1.368,2.217
		c0.458,0.94,0.831,2.049,1.122,3.321c0.293,1.269,0.53,2.851,0.717,4.735c0.188,1.893,0.277,4.006,0.277,6.352v3.098
		c0,3.361-0.181,6.259-0.537,8.678c-0.357,2.421-0.798,4.279-1.318,5.581c-0.521,1.305-1.195,2.33-2.02,3.081
		c-0.828,0.747-1.585,1.215-2.28,1.398c-0.697,0.187-1.511,0.276-2.442,0.276c-1.368,0-2.707-0.387-4.021-1.154
		c-1.316-0.771-2.48-1.905-3.502-3.401v16.214H532.909z M549.027,282.484v-3.09c0-2.043-0.05-3.859-0.146-5.44
		c-0.097-1.586-0.22-2.897-0.374-3.942c-0.146-1.041-0.357-1.926-0.617-2.65c-0.264-0.731-0.511-1.291-0.748-1.682
		c-0.243-0.391-0.55-0.685-0.931-0.875c-0.38-0.199-0.708-0.316-0.979-0.363c-0.266-0.04-0.62-0.063-1.055-0.063
		c-0.978,0-2.043,0.364-3.193,1.092c-1.148,0.73-2.214,1.679-3.191,2.854v25.72c2.324,2.587,4.503,3.879,6.546,3.879
		c0.478,0,0.873-0.044,1.191-0.13c0.31-0.087,0.671-0.28,1.074-0.588c0.4-0.301,0.724-0.798,0.975-1.482
		c0.251-0.681,0.501-1.571,0.752-2.669c0.249-1.096,0.427-2.534,0.536-4.316C548.975,286.957,549.027,284.875,549.027,282.484z"/>
	<path fill="#00C18B" d="M575.342,300.658v-56.046h4.887v56.046H575.342z"/>
	<path fill="#00C18B" d="M588.436,282.161v-2.02c0-1.735,0.011-3.07,0.03-3.988c0.023-0.922,0.097-2.186,0.211-3.778
		c0.12-1.599,0.308-2.837,0.553-3.731c0.251-0.885,0.629-1.909,1.129-3.058c0.498-1.155,1.112-2.026,1.836-2.623
		c0.728-0.598,1.646-1.111,2.753-1.546c1.109-0.434,2.377-0.651,3.812-0.651c1.432,0,2.703,0.218,3.809,0.651
		c1.107,0.435,2.025,0.948,2.754,1.546c0.724,0.597,1.338,1.468,1.842,2.623c0.497,1.148,0.867,2.173,1.125,3.058
		c0.243,0.895,0.431,2.133,0.551,3.731c0.116,1.593,0.189,2.856,0.21,3.778c0.023,0.918,0.033,2.253,0.033,3.988v2.02
		c0,1.452-0.006,2.55-0.013,3.288c-0.014,0.736-0.047,1.765-0.101,3.077c-0.054,1.314-0.144,2.333-0.261,3.043
		c-0.123,0.719-0.3,1.609-0.541,2.675c-0.233,1.062-0.527,1.886-0.861,2.476c-0.337,0.581-0.761,1.232-1.284,1.937
		c-0.521,0.704-1.118,1.238-1.793,1.596c-0.671,0.356-1.468,0.66-2.393,0.911c-0.929,0.25-1.949,0.373-3.077,0.373
		s-2.156-0.123-3.078-0.373c-0.924-0.251-1.722-0.555-2.393-0.911c-0.674-0.357-1.274-0.892-1.793-1.596
		c-0.521-0.704-0.951-1.355-1.288-1.937c-0.337-0.59-0.624-1.414-0.857-2.476c-0.244-1.065-0.424-1.956-0.544-2.675
		c-0.116-0.71-0.201-1.729-0.257-3.043c-0.057-1.312-0.09-2.341-0.101-3.077C588.439,284.711,588.436,283.613,588.436,282.161z
		 M593.318,280.142v2.02c0,6.121,0.361,10.333,1.075,12.636c0.718,2.3,2.173,3.452,4.366,3.452s3.647-1.152,4.363-3.452
		c0.717-2.303,1.077-6.515,1.077-12.636v-2.02c0-2.066-0.022-3.802-0.071-5.213c-0.043-1.412-0.133-2.765-0.272-4.053
		c-0.141-1.291-0.341-2.33-0.588-3.11c-0.25-0.781-0.577-1.473-0.974-2.069c-0.404-0.595-0.893-1.019-1.47-1.266
		c-0.577-0.254-1.265-0.38-2.065-0.38c-0.805,0-1.496,0.126-2.066,0.38c-0.577,0.247-1.074,0.671-1.481,1.266
		c-0.417,0.597-0.738,1.285-0.982,2.056c-0.236,0.768-0.427,1.812-0.57,3.124c-0.137,1.315-0.23,2.664-0.273,4.053
		C593.346,276.32,593.318,278.056,593.318,280.142z"/>
	<path fill="#00C18B" d="M619.504,293.82c-0.107,0.496,0.184,0.867,0.877,1.108c0.698,0.236,2.478,0.65,5.341,1.237
		c0.895,0.174,1.585,0.311,2.086,0.421c1.782,0.37,3.314,0.768,4.593,1.188c1.282,0.425,2.48,0.958,3.594,1.596
		c1.122,0.642,1.961,1.426,2.524,2.343c0.567,0.925,0.851,1.983,0.851,3.178c0,1.089-0.177,2.069-0.537,2.947
		c-0.36,0.882-0.821,1.612-1.386,2.199c-0.563,0.585-1.251,1.099-2.065,1.532s-1.608,0.771-2.39,1.008
		c-0.788,0.237-1.639,0.427-2.557,0.57c-0.929,0.141-1.716,0.225-2.363,0.261c-0.654,0.03-1.318,0.047-1.985,0.047
		c-8.669,0-13.001-1.702-13.001-5.11c0-2.192,0.711-4.139,2.119-5.833c1.416-1.692,3.138-3.059,5.177-4.1
		c-0.323-0.067-0.851-0.204-1.582-0.41c-0.725-0.203-1.539-0.527-2.437-0.961c-0.907-0.434-1.352-0.855-1.352-1.266
		c0-0.283,0.036-0.594,0.11-0.932c0.076-0.333,0.201-0.693,0.36-1.074c0.16-0.377,0.33-0.748,0.504-1.107
		c0.174-0.357,0.391-0.749,0.65-1.172c0.261-0.424,0.491-0.791,0.685-1.108c0.197-0.31,0.438-0.682,0.718-1.088
		c0.283-0.414,0.501-0.721,0.651-0.911c0.149-0.2,0.347-0.461,0.587-0.781c0.236-0.33,0.368-0.511,0.391-0.557
		c-1.542-1.39-2.687-3.178-3.431-5.375c-0.755-2.189-1.129-4.473-1.129-6.835c0-1.262,0.124-2.517,0.354-3.778
		c0.243-1.262,0.646-2.511,1.225-3.761c0.573-1.252,1.281-2.354,2.112-3.309c0.838-0.955,1.903-1.726,3.195-2.313
		c1.295-0.587,2.729-0.877,4.314-0.877c2.087,0,3.816,0.503,5.197,1.511c1.375,1.012,2.717,2.524,4.021,4.544
		c0.415-0.715,0.774-1.309,1.089-1.789c0.32-0.475,0.73-1.038,1.254-1.693c0.521-0.65,1.086-1.191,1.692-1.611
		c0.607-0.427,1.242-0.711,1.894-0.864v4.723c-0.825,0.153-1.686,0.514-2.574,1.092c-0.891,0.577-1.672,1.241-2.343,2.006
		c0.821,2.299,1.234,4.262,1.234,5.892c0,1.562-0.13,3.039-0.39,4.428c-0.261,1.389-0.678,2.7-1.255,3.926
		c-0.574,1.225-1.299,2.282-2.166,3.175c-0.868,0.891-1.943,1.587-3.225,2.099c-1.281,0.511-2.711,0.768-4.296,0.768
		c-1.869,0-3.431-0.264-4.692-0.781C620.559,290.475,619.804,292.341,619.504,293.82z M629.603,300.558l-6.975-1.495
		c-1.082,0.802-2.177,2.018-3.268,3.649c-1.099,1.625-1.646,3.014-1.646,4.168c0,0.497,0.109,0.932,0.34,1.302
		c0.224,0.367,0.585,0.661,1.074,0.879c0.491,0.216,0.945,0.39,1.366,0.523c0.431,0.127,1.018,0.22,1.778,0.273
		c0.758,0.057,1.335,0.087,1.726,0.101c0.391,0.01,0.965,0.016,1.723,0.016c0.196,0,0.337,0,0.423,0
		c5.759,0,8.636-1.397,8.636-4.205c0-1.535-0.4-2.707-1.208-3.497C632.771,301.476,631.442,300.909,629.603,300.558z
		 M623.622,284.668c0.818,0.501,1.766,0.748,2.854,0.748c1.085,0,2.026-0.247,2.831-0.748c0.805-0.5,1.425-1.105,1.858-1.826
		c0.435-0.711,0.782-1.562,1.038-2.536c0.264-0.981,0.431-1.85,0.504-2.607c0.077-0.761,0.117-1.531,0.117-2.312
		c0-0.758-0.033-1.525-0.098-2.293c-0.069-0.771-0.236-1.683-0.51-2.74c-0.267-1.052-0.61-1.97-1.038-2.754
		c-0.423-0.781-1.045-1.449-1.856-2.013c-0.814-0.563-1.762-0.851-2.847-0.851c-0.914,0-1.735,0.193-2.463,0.57
		c-0.724,0.381-1.312,0.897-1.756,1.546c-0.446,0.653-0.821,1.345-1.121,2.072c-0.308,0.725-0.53,1.519-0.671,2.376
		c-0.144,0.854-0.24,1.6-0.29,2.23c-0.057,0.627-0.084,1.248-0.084,1.855c0,0.805,0.034,1.578,0.097,2.33
		c0.063,0.747,0.23,1.615,0.508,2.606c0.267,0.988,0.624,1.832,1.055,2.54C622.184,283.569,622.808,284.168,623.622,284.668z"/>
	<path fill="#00C18B" d="M644.156,282.161v-2.02c0-1.735,0.009-3.07,0.036-3.988c0.02-0.922,0.087-2.186,0.21-3.778
		c0.117-1.599,0.304-2.837,0.551-3.731c0.251-0.885,0.628-1.909,1.122-3.058c0.503-1.155,1.117-2.026,1.845-2.623
		c0.725-0.598,1.646-1.111,2.751-1.546c1.104-0.434,2.38-0.651,3.812-0.651s2.701,0.218,3.808,0.651
		c1.108,0.435,2.023,0.948,2.751,1.546c0.731,0.597,1.345,1.468,1.839,2.623c0.504,1.148,0.878,2.173,1.126,3.058
		c0.249,0.895,0.433,2.133,0.553,3.731c0.123,1.593,0.19,2.856,0.215,3.778c0.02,0.918,0.029,2.253,0.029,3.988v2.02
		c0,1.452-0.007,2.55-0.014,3.288c-0.014,0.736-0.047,1.765-0.101,3.077c-0.052,1.314-0.136,2.333-0.259,3.043
		c-0.121,0.719-0.298,1.609-0.538,2.675c-0.237,1.062-0.524,1.886-0.861,2.476c-0.337,0.581-0.768,1.232-1.284,1.937
		c-0.524,0.704-1.125,1.238-1.793,1.596c-0.678,0.356-1.475,0.66-2.393,0.911c-0.925,0.25-1.95,0.373-3.078,0.373
		c-1.132,0-2.155-0.123-3.08-0.373c-0.922-0.251-1.719-0.555-2.394-0.911c-0.674-0.357-1.269-0.892-1.792-1.596
		c-0.521-0.704-0.948-1.355-1.285-1.937c-0.337-0.59-0.624-1.414-0.864-2.476c-0.234-1.065-0.418-1.956-0.534-2.675
		c-0.121-0.71-0.207-1.729-0.265-3.043c-0.054-1.312-0.083-2.341-0.097-3.077C644.158,284.711,644.156,283.613,644.156,282.161z
		 M649.042,280.142v2.02c0,6.121,0.357,10.333,1.075,12.636c0.718,2.3,2.169,3.452,4.365,3.452c2.193,0,3.648-1.152,4.362-3.452
		c0.718-2.303,1.075-6.515,1.075-12.636v-2.02c0-2.066-0.023-3.802-0.067-5.213c-0.039-1.412-0.133-2.765-0.272-4.053
		c-0.141-1.291-0.341-2.33-0.588-3.11c-0.251-0.781-0.574-1.473-0.976-2.069c-0.403-0.595-0.891-1.019-1.468-1.266
		c-0.577-0.254-1.266-0.38-2.066-0.38c-0.805,0-1.495,0.126-2.069,0.38c-0.577,0.247-1.071,0.671-1.481,1.266
		c-0.411,0.597-0.741,1.285-0.975,2.056c-0.24,0.768-0.431,1.812-0.574,3.124c-0.144,1.315-0.23,2.664-0.274,4.053
		C649.062,276.32,649.042,278.056,649.042,280.142z"/>
	<path fill="#00C18B" d="M672.166,313.194v-51.55h4.883v3.682c1.952-3.041,4.583-4.561,7.88-4.561c0.588,0,1.122,0.047,1.6,0.144
		c0.48,0.097,1.008,0.308,1.596,0.619c0.584,0.316,1.104,0.74,1.562,1.271c0.457,0.534,0.914,1.269,1.368,2.217
		c0.457,0.94,0.831,2.049,1.121,3.321c0.297,1.269,0.53,2.851,0.719,4.735c0.187,1.893,0.276,4.006,0.276,6.352v3.098
		c0,3.361-0.181,6.259-0.537,8.678c-0.357,2.421-0.799,4.279-1.319,5.581c-0.521,1.305-1.194,2.33-2.019,3.081
		c-0.825,0.747-1.586,1.215-2.279,1.398c-0.695,0.187-1.513,0.276-2.441,0.276c-1.371,0-2.709-0.387-4.024-1.154
		c-1.314-0.771-2.479-1.905-3.501-3.401v16.214H672.166z M688.283,282.484v-3.09c0-2.043-0.047-3.859-0.146-5.44
		c-0.094-1.586-0.221-2.897-0.374-3.942c-0.147-1.041-0.356-1.926-0.617-2.65c-0.261-0.731-0.511-1.291-0.747-1.682
		c-0.24-0.391-0.552-0.685-0.932-0.875c-0.377-0.199-0.708-0.316-0.976-0.363c-0.27-0.04-0.624-0.063-1.058-0.063
		c-0.978,0-2.042,0.364-3.193,1.092c-1.148,0.73-2.213,1.679-3.191,2.854v25.72c2.323,2.587,4.503,3.879,6.545,3.879
		c0.48,0,0.875-0.044,1.191-0.13c0.312-0.087,0.671-0.28,1.075-0.588c0.399-0.301,0.725-0.798,0.979-1.482
		c0.246-0.681,0.497-1.571,0.747-2.669c0.251-1.096,0.431-2.534,0.538-4.316C688.23,286.957,688.283,284.875,688.283,282.484z"/>
	<path fill="#00C18B" d="M700.14,282.682v-5.439c0.022-2.715,0.216-5.064,0.587-7.054c0.367-1.981,0.852-3.574,1.444-4.769
		c0.602-1.192,1.373-2.144,2.317-2.851c0.941-0.702,1.915-1.183,2.914-1.432c0.998-0.251,2.169-0.372,3.518-0.372
		c3.495,0,6.011,1.236,7.536,3.709c1.536,2.477,2.3,6.381,2.3,11.725c0,1.633-0.023,2.965-0.066,4.01h-15.635v5.957
		c0,2.564,0.128,4.663,0.375,6.299c0.25,1.643,0.646,2.873,1.191,3.701c0.543,0.821,1.141,1.379,1.791,1.655
		c0.652,0.287,1.48,0.428,2.478,0.428c1.449,0,2.67-0.73,3.658-2.2c0.987-1.461,1.492-3.914,1.515-7.346h4.56
		c-0.126,1.479-0.3,2.79-0.518,3.941c-0.22,1.155-0.563,2.303-1.027,3.455c-0.468,1.147-1.045,2.102-1.727,2.864
		c-0.683,0.764-1.568,1.378-2.655,1.855c-1.082,0.48-2.33,0.717-3.745,0.717c-2.754,0-4.899-0.551-6.432-1.642
		c-1.526-1.099-2.653-3.007-3.368-5.733C700.434,291.437,700.093,287.608,700.14,282.682z M705.089,277.795H715.9
		c-0.021-0.867-0.021-1.746,0-2.64c0.025-0.885,0.014-1.782-0.031-2.684c-0.043-0.9-0.105-1.762-0.18-2.586
		c-0.073-0.828-0.224-1.593-0.438-2.298c-0.22-0.707-0.491-1.321-0.814-1.842c-0.327-0.521-0.768-0.932-1.335-1.237
		c-0.563-0.301-1.215-0.458-1.955-0.458c-1.195,0-2.177,0.218-2.944,0.653c-0.778,0.435-1.371,0.942-1.796,1.53
		c-0.421,0.583-0.73,1.575-0.928,2.963c-0.193,1.389-0.311,2.614-0.34,3.665C705.105,273.914,705.089,275.56,705.089,277.795z"/>
	<path fill="#00C18B" d="M743.031,300.658v-3.678c-1.952,3.038-4.583,4.556-7.88,4.556c-0.588,0-1.122-0.047-1.596-0.146
		c-0.48-0.094-1.012-0.305-1.598-0.617c-0.585-0.313-1.108-0.738-1.562-1.272c-0.457-0.531-0.915-1.268-1.368-2.212
		c-0.458-0.945-0.831-2.054-1.125-3.321c-0.294-1.271-0.531-2.851-0.715-4.74c-0.187-1.888-0.276-4.004-0.276-6.352v-3.09
		c0-3.368,0.177-6.262,0.538-8.683c0.355-2.419,0.797-4.285,1.317-5.586c0.521-1.302,1.194-2.327,2.02-3.074
		c0.824-0.752,1.585-1.219,2.28-1.398c0.693-0.184,1.508-0.278,2.442-0.278c1.364,0,2.703,0.384,4.019,1.151
		c1.318,0.771,2.482,1.907,3.504,3.409v-20.714h4.884v56.046H743.031z M743.031,293.983v-25.73
		c-2.325-2.584-4.505-3.875-6.549-3.875c-0.48,0-0.873,0.046-1.188,0.131c-0.31,0.09-0.674,0.283-1.074,0.586
		c-0.404,0.305-0.728,0.799-0.979,1.483c-0.247,0.68-0.501,1.575-0.748,2.67c-0.249,1.098-0.431,2.532-0.536,4.315
		c-0.11,1.778-0.164,3.865-0.164,6.255v3.094c0,2.039,0.047,3.848,0.15,5.435c0.093,1.585,0.223,2.903,0.37,3.941
		c0.153,1.045,0.361,1.929,0.62,2.652c0.261,0.729,0.509,1.288,0.752,1.679c0.233,0.392,0.544,0.682,0.924,0.882
		c0.378,0.193,0.708,0.312,0.979,0.357c0.27,0.044,0.624,0.063,1.058,0.063c0.979,0,2.044-0.36,3.191-1.092
		C740.989,296.105,742.055,295.158,743.031,293.983z"/>
	<path fill="#00C18B" d="M756.123,252.72v-5.832h4.886v5.832H756.123z M756.123,300.658v-39.014h4.886v39.014H756.123z"/>
	<path fill="#00C18B" d="M768.529,282.682v-5.439c0.022-2.715,0.216-5.064,0.586-7.054c0.371-1.981,0.853-3.574,1.449-4.769
		c0.598-1.192,1.369-2.144,2.31-2.851c0.947-0.702,1.919-1.183,2.92-1.432c0.999-0.251,2.17-0.372,3.515-0.372
		c3.496,0,6.012,1.236,7.54,3.709c1.533,2.477,2.298,6.381,2.298,11.725c0,1.633-0.024,2.965-0.067,4.01h-15.631v5.957
		c0,2.564,0.124,4.663,0.373,6.299c0.247,1.643,0.646,2.873,1.192,3.701c0.54,0.821,1.139,1.379,1.792,1.655
		c0.648,0.287,1.476,0.428,2.474,0.428c1.452,0,2.673-0.73,3.658-2.2c0.991-1.461,1.499-3.914,1.519-7.346h4.559
		c-0.13,1.479-0.303,2.79-0.521,3.941c-0.22,1.155-0.56,2.303-1.028,3.455c-0.463,1.147-1.041,2.102-1.724,2.864
		c-0.682,0.764-1.57,1.378-2.654,1.855c-1.085,0.48-2.334,0.717-3.745,0.717c-2.754,0-4.902-0.551-6.435-1.642
		c-1.526-1.099-2.65-3.007-3.368-5.733C768.821,291.437,768.484,287.608,768.529,282.682z M773.479,277.795h10.814
		c-0.021-0.867-0.021-1.746,0-2.64c0.022-0.885,0.009-1.782-0.031-2.684c-0.046-0.9-0.11-1.762-0.18-2.586
		c-0.076-0.828-0.223-1.593-0.44-2.298c-0.217-0.707-0.491-1.321-0.814-1.842s-0.768-0.932-1.331-1.237
		c-0.565-0.301-1.219-0.458-1.957-0.458c-1.194,0-2.176,0.218-2.943,0.653c-0.777,0.435-1.372,0.942-1.796,1.53
		c-0.42,0.583-0.734,1.575-0.931,2.963c-0.193,1.389-0.311,2.614-0.34,3.665C773.498,273.914,773.479,275.56,773.479,277.795z"/>
</g>
<g>
	<g>
		<path fill="#00C18B" d="M402.426,107.576h-39.962c-4.319,0-7.82,4.206-7.82,9.386v10.333v30.787v31.668
			c0,9.253,4.215,17.27,12.196,23.188c4.128,3.067,8.794,5.256,13.918,6.618c2.37-4.219,5.067-9.013,7.814-13.898
			c-4.907-0.653-9.079-2.289-12.657-4.946c-4.122-3.057-6.048-6.542-6.048-10.961v-22.282h32.56c4.322,0,7.824-4.199,7.824-9.386
			v-41.12C410.25,111.781,406.748,107.576,402.426,107.576z"/>
	</g>
	<g>
		<g>
			<path d="M96.228,71.281v43.063c-2.186-1.916-4.786-3.518-7.79-4.819c-3.01-1.298-6.225-1.949-9.64-1.949
				c-3.147,0-6.047,0.448-8.714,1.335c-2.667,0.888-4.957,2.083-6.869,3.588c-1.916,1.505-3.454,3.281-4.616,5.33
				c-1.162,2.049-1.742,4.172-1.742,6.358v71.979c0,4.785,2.119,8.751,6.358,11.895c4.236,3.148,9.432,4.717,15.583,4.717
				c3.555,0,6.799-0.581,9.74-1.743c2.941-1.161,5.504-2.77,7.69-4.818v6.562h4.309V71.281H96.228z M96.228,196.166
				c0,3.69-1.709,6.838-5.127,9.435c-3.417,2.597-7.52,3.896-12.303,3.896c-4.919,0-9.058-1.299-12.406-3.896
				c-3.351-2.597-5.023-5.744-5.023-9.435v-71.979c0-3.554,1.672-6.666,5.023-9.329c3.348-2.67,7.486-3.999,12.406-3.999
				c4.783,0,8.886,1.329,12.303,3.999c3.418,2.663,5.127,5.774,5.127,9.329V196.166z"/>
			<path d="M105.664,217.903H91.101v-2.379c-0.225,0.097-0.452,0.189-0.679,0.28c-3.529,1.392-7.44,2.099-11.624,2.099
				c-7.254,0-13.526-1.926-18.641-5.728c-5.512-4.088-8.428-9.625-8.428-16.01v-71.979c0-3.076,0.811-6.066,2.408-8.886
				c1.487-2.62,3.475-4.92,5.91-6.834c2.364-1.86,5.197-3.348,8.417-4.42c6.737-2.242,15.095-2.213,22.004,0.771
				c0.212,0.092,0.422,0.185,0.632,0.28V66.155h14.562V217.903z M78.798,115.987c-3.768,0-6.78,0.941-9.208,2.88
				c-2.774,2.203-3.095,4.092-3.095,5.32v71.979c0,1.411,0.346,3.297,3.038,5.383c2.446,1.899,5.477,2.82,9.265,2.82
				c3.667,0,6.677-0.932,9.202-2.851c2.749-2.089,3.101-3.958,3.101-5.353v-71.979c0-1.215-0.327-3.084-3.151-5.285
				C85.438,116.939,82.445,115.987,78.798,115.987z"/>
		</g>
		<g>
			<path d="M167.078,208.061c-4.173,3.148-9.333,4.717-15.484,4.717s-11.349-1.568-15.584-4.717
				c-4.239-3.144-6.358-7.109-6.358-11.895v-71.979c0-2.186,0.581-4.309,1.743-6.358c1.161-2.049,2.7-3.825,4.616-5.33
				c1.913-1.505,4.203-2.7,6.869-3.588c2.667-0.887,5.567-1.335,8.715-1.335c3.007,0,5.844,0.448,8.511,1.335
				c2.667,0.888,4.953,2.083,6.869,3.588c1.913,1.505,3.451,3.281,4.613,5.33c1.162,2.049,1.746,4.172,1.746,6.358v32.399h-39.168
				v39.58c0,3.69,1.672,6.838,5.023,9.435c3.348,2.597,7.487,3.896,12.407,3.896c4.783,0,8.885-1.299,12.303-3.896
				s5.127-5.744,5.127-9.435v-10.868h4.309v10.868C173.333,200.951,171.247,204.917,167.078,208.061z M134.165,153.513h34.859
				v-29.325c0-3.554-1.709-6.666-5.127-9.329c-3.418-2.67-7.52-3.999-12.303-3.999c-4.92,0-9.059,1.329-12.407,3.999
				c-3.351,2.663-5.023,5.774-5.023,9.329V153.513z"/>
			<path d="M151.594,217.903c-7.254,0-13.526-1.926-18.641-5.728c-5.512-4.088-8.428-9.625-8.428-16.01v-71.979
				c0-3.076,0.812-6.066,2.408-8.886c1.487-2.62,3.475-4.92,5.91-6.834c2.365-1.86,5.197-3.348,8.418-4.42
				c6.251-2.083,13.971-2.158,20.463,0c3.213,1.069,6.045,2.557,8.418,4.42c2.437,1.917,4.421,4.216,5.906,6.834
				c1.601,2.823,2.412,5.814,2.412,8.886v37.526h-39.168v34.453c0,1.411,0.345,3.297,3.038,5.383c2.446,1.899,5.477,2.82,9.265,2.82
				c3.666,0,6.677-0.932,9.202-2.851c2.749-2.089,3.101-3.958,3.101-5.353v-15.995h14.562v15.995c0,6.367-2.869,11.895-8.294,15.986
				C165.107,215.968,158.859,217.903,151.594,217.903z M139.292,148.386h24.605v-24.199c0-1.215-0.327-3.084-3.151-5.285
				c-2.513-1.963-5.506-2.916-9.152-2.916c-3.768,0-6.781,0.941-9.209,2.88c-2.773,2.203-3.094,4.092-3.094,5.32V148.386z"/>
		</g>
		<g>
			<path d="M300.879,212.777l-35.68-47.987v47.987h-4.512V71.689h4.512v82.849c5.741-7.791,11.652-15.654,17.737-23.584
				c6.082-7.924,12.066-15.72,17.943-23.377h4.102l-39.372,52.088c6.422,8.611,12.984,17.466,19.686,26.555
				c6.695,9.095,13.257,17.946,19.686,26.559H300.879z"/>
			<path d="M315.207,217.903h-16.904l-27.977-37.626v37.626H255.56V66.562h14.766v72.51c2.831-3.759,5.684-7.515,8.543-11.239
				l19.482-25.383h16.932l-43.264,57.236c5.692,7.645,11.492,15.477,17.401,23.491c6.692,9.088,13.248,17.932,19.669,26.533
				L315.207,217.903z"/>
		</g>
		<g>
			<path d="M326.72,212.777V71.281h4.305v141.496H326.72z"/>
			<rect x="321.593" y="66.155" width="14.559" height="151.749"/>
		</g>
		<g>
			<path d="M432.939,212.777V107.576h4.513v6.769c2.052-1.916,4.579-3.518,7.586-4.819c3.007-1.298,6.288-1.949,9.847-1.949
				c4.372,0,8.268,0.925,11.688,2.771c3.415,1.842,6.081,4.136,7.997,6.869c1.775-2.871,4.439-5.194,7.997-6.973
				c3.555-1.776,7.517-2.667,11.892-2.667c3.008,0,5.845,0.448,8.512,1.335c2.667,0.888,4.99,2.083,6.973,3.588
				c1.979,1.505,3.555,3.281,4.716,5.33c1.162,2.049,1.746,4.172,1.746,6.358v88.59h-4.513v-88.59c0-1.775-0.48-3.488-1.435-5.127
				c-0.958-1.639-2.224-3.074-3.795-4.309c-1.573-1.228-3.418-2.183-5.538-2.871c-2.119-0.681-4.343-1.021-6.666-1.021
				c-5.056,0-9.262,1.329-12.609,3.999c-3.351,2.663-5.023,5.774-5.023,9.329v88.59h-4.513v-88.59c0-3.554-1.712-6.666-5.126-9.329
				c-3.418-2.67-7.521-3.999-12.303-3.999c-2.327,0-4.549,0.34-6.665,1.021c-2.123,0.688-3.97,1.643-5.538,2.871
				c-1.575,1.235-2.84,2.67-3.795,4.309c-0.957,1.639-1.435,3.352-1.435,5.127v88.59H432.939z"/>
			<path d="M521.531,217.903h-14.765v-93.716c0-0.859-0.241-1.694-0.738-2.546c-0.631-1.078-1.462-2.016-2.533-2.857
				c-1.075-0.841-2.41-1.526-3.952-2.026c-1.589-0.511-3.305-0.771-5.084-0.771c-3.904,0-6.981,0.941-9.412,2.88
				c-2.773,2.205-3.094,4.092-3.094,5.32v93.716h-14.766v-93.716c0-1.213-0.327-3.083-3.154-5.287
				c-2.51-1.961-5.501-2.914-9.148-2.914c-1.782,0-3.498,0.26-5.097,0.774c-1.532,0.497-2.863,1.18-3.945,2.027
				c-1.068,0.838-1.896,1.771-2.526,2.853c-0.498,0.853-0.738,1.684-0.738,2.546v93.716h-14.766V102.449h14.766v2.557
				c0.141-0.062,0.28-0.124,0.424-0.185c3.645-1.574,7.64-2.372,11.883-2.372c5.207,0,9.96,1.138,14.121,3.385
				c2.017,1.086,3.832,2.323,5.438,3.701c1.683-1.482,3.629-2.777,5.831-3.878c4.263-2.127,9.035-3.208,14.185-3.208
				c3.539,0,6.946,0.537,10.131,1.597c3.19,1.062,6.034,2.532,8.454,4.369c2.537,1.93,4.579,4.246,6.074,6.886
				c1.603,2.823,2.413,5.814,2.413,8.886V217.903z"/>
		</g>
		<g>
			<path d="M573.203,212.777c-3.007,0-5.844-0.41-8.512-1.229c-2.666-0.821-4.989-1.982-6.973-3.488
				c-1.982-1.506-3.555-3.281-4.716-5.334c-1.162-2.049-1.741-4.231-1.741-6.561V110.86h-12.101v-3.284h12.101V81.942h4.512v25.633
				h18.454v3.284h-18.454v85.306c0,3.69,1.809,6.838,5.434,9.435c3.621,2.597,8.027,3.896,13.227,3.896v2.256L573.203,212.777z"/>
			<path d="M575.055,217.903h-1.852c-3.498,0-6.869-0.491-10.014-1.451c-3.237-0.999-6.117-2.447-8.57-4.31
				c-2.534-1.923-4.58-4.242-6.079-6.892c-1.596-2.817-2.406-5.875-2.406-9.085v-80.179h-12.099v-13.538h12.099V76.815H560.9v25.634
				h18.454v13.538H560.9v80.179c0,1.354,0.373,3.177,3.293,5.266c2.754,1.977,6.105,2.938,10.24,2.938h5.128v9.786L575.055,217.903z
				"/>
		</g>
		<g>
			<path d="M633.595,208.061c-4.172,3.148-9.331,4.717-15.483,4.717c-6.15,0-11.348-1.568-15.583-4.717
				c-4.239-3.144-6.358-7.109-6.358-11.895v-71.979c0-2.186,0.58-4.309,1.742-6.358c1.162-2.049,2.7-3.825,4.616-5.33
				c1.912-1.505,4.201-2.7,6.868-3.588c2.667-0.887,5.567-1.335,8.715-1.335c3.008,0,5.845,0.448,8.512,1.335
				c2.667,0.888,4.952,2.083,6.868,3.588c1.913,1.505,3.452,3.281,4.612,5.33c1.162,2.049,1.746,4.172,1.746,6.358v71.979
				C639.85,200.951,637.765,204.917,633.595,208.061z M605.706,205.601c3.347,2.597,7.485,3.896,12.405,3.896
				c4.783,0,8.886-1.299,12.303-3.896c3.418-2.597,5.127-5.744,5.127-9.435v-71.979c0-3.554-1.709-6.666-5.127-9.329
				c-3.417-2.67-7.52-3.999-12.303-3.999c-4.92,0-9.059,1.329-12.405,3.999c-3.353,2.663-5.024,5.774-5.024,9.329v71.979
				C600.682,199.856,602.354,203.004,605.706,205.601z"/>
			<path d="M618.111,217.903c-7.256,0-13.527-1.926-18.642-5.728c-5.514-4.088-8.427-9.625-8.427-16.01v-71.979
				c0-3.076,0.811-6.066,2.41-8.886c1.485-2.62,3.471-4.92,5.907-6.834c2.363-1.86,5.197-3.348,8.418-4.42
				c6.251-2.083,13.972-2.163,20.464,0c3.214,1.069,6.044,2.557,8.418,4.42c2.436,1.917,4.422,4.216,5.904,6.834
				c1.601,2.823,2.412,5.814,2.412,8.886v71.979c0,6.367-2.867,11.895-8.294,15.986
				C631.626,215.968,625.377,217.903,618.111,217.903z M618.111,115.987c-3.768,0-6.778,0.941-9.209,2.88
				c-2.773,2.205-3.094,4.092-3.094,5.32v71.979c0,1.411,0.344,3.297,3.037,5.383c2.446,1.899,5.478,2.82,9.266,2.82
				c3.668,0,6.676-0.932,9.202-2.851c2.747-2.089,3.101-3.958,3.101-5.353v-71.979c0-1.215-0.327-3.084-3.15-5.285
				C624.75,116.939,621.76,115.987,618.111,115.987z"/>
		</g>
		<g>
			<path d="M706.391,208.061c-4.173,3.148-9.332,4.717-15.483,4.717s-11.349-1.568-15.584-4.717
				c-4.239-3.144-6.358-7.109-6.358-11.895v-71.979c0-2.186,0.58-4.309,1.742-6.358c1.162-2.049,2.7-3.825,4.616-5.33
				c1.912-1.505,4.202-2.7,6.869-3.588c2.667-0.887,5.566-1.335,8.715-1.335c3.007,0,5.844,0.448,8.511,1.335
				c2.667,0.888,4.953,2.083,6.869,3.588c1.912,1.505,3.451,3.281,4.613,5.33c1.161,2.049,1.744,4.172,1.744,6.358v71.979
				C712.645,200.951,710.56,204.917,706.391,208.061z M678.501,205.601c3.347,2.597,7.486,3.896,12.406,3.896
				c4.782,0,8.885-1.299,12.303-3.896s5.126-5.744,5.126-9.435v-71.979c0-3.554-1.708-6.666-5.126-9.329
				c-3.418-2.67-7.521-3.999-12.303-3.999c-4.92,0-9.06,1.329-12.406,3.999c-3.351,2.663-5.024,5.774-5.024,9.329v71.979
				C673.477,199.856,675.15,203.004,678.501,205.601z"/>
			<path d="M690.907,217.903c-7.256,0-13.528-1.926-18.641-5.728c-5.515-4.088-8.429-9.625-8.429-16.01v-71.979
				c0-3.076,0.812-6.066,2.41-8.886c1.485-2.62,3.472-4.92,5.908-6.834c2.363-1.86,5.196-3.348,8.417-4.42
				c6.252-2.083,13.972-2.163,20.464,0c3.214,1.069,6.044,2.557,8.418,4.42c2.436,1.917,4.422,4.216,5.904,6.834
				c1.602,2.823,2.413,5.814,2.413,8.886v71.979c0,6.367-2.868,11.895-8.295,15.986
				C704.422,215.968,698.174,217.903,690.907,217.903z M690.907,115.987c-3.769,0-6.779,0.941-9.21,2.88
				c-2.772,2.205-3.093,4.092-3.093,5.32v71.979c0,1.411,0.344,3.297,3.037,5.383c2.446,1.899,5.478,2.82,9.266,2.82
				c3.667,0,6.675-0.932,9.201-2.851c2.747-2.089,3.102-3.958,3.102-5.353v-71.979c0-1.215-0.327-3.084-3.151-5.285
				C697.546,116.939,694.555,115.987,690.907,115.987z"/>
		</g>
		<g>
			<path d="M741.764,212.777V107.576h4.513v6.769c2.049-1.916,4.579-3.518,7.587-4.819c3.003-1.298,6.284-1.949,9.842-1.949
				c3.008,0,5.845,0.448,8.512,1.335c2.666,0.888,4.953,2.083,6.869,3.588c1.912,1.505,3.451,3.281,4.612,5.33
				c1.162,2.049,1.746,4.172,1.746,6.358v88.59h-4.31v-88.59c0-3.554-1.709-6.666-5.126-9.329c-3.418-2.67-7.52-3.999-12.304-3.999
				c-4.92,0-9.059,1.329-12.406,3.999c-3.351,2.663-5.022,5.774-5.022,9.329v88.59H741.764z"/>
			<path d="M790.57,217.903h-14.562v-93.716c0-1.215-0.327-3.084-3.15-5.285c-2.514-1.963-5.505-2.916-9.153-2.916
				c-3.769,0-6.778,0.941-9.208,2.88c-2.774,2.205-3.095,4.092-3.095,5.32v93.716h-14.766V102.449h14.766v2.557
				c0.141-0.062,0.28-0.124,0.424-0.185c6.679-2.887,15.007-3.103,22.009-0.774c3.214,1.069,6.045,2.557,8.418,4.42
				c2.437,1.917,4.423,4.216,5.904,6.834c1.603,2.823,2.413,5.814,2.413,8.886V217.903z"/>
		</g>
	</g>
</g>
</svg>
