<?xml version="1.0" encoding="utf-8"?>
<!-- Generator: Adobe Illustrator 16.0.4, SVG Export Plug-In . SVG Version: 6.00 Build 0)  -->
<!DOCTYPE svg PUBLIC "-//W3C//DTD SVG 1.1//EN" "http://www.w3.org/Graphics/SVG/1.1/DTD/svg11.dtd">
<svg version="1.1" id="Laag_1" xmlns="http://www.w3.org/2000/svg" xmlns:xlink="http://www.w3.org/1999/xlink" x="0px" y="0px"
	 width="1420px" height="2834.65px" viewBox="0 0 1420 2834.65" enable-background="new 0 0 1420 2834.65" xml:space="preserve">
<g>
	<defs>
		<rect id="SVGID_1_" width="1420" height="2834.65"/>
	</defs>
	<clipPath id="SVGID_2_">
		<use xlink:href="#SVGID_1_"  overflow="visible"/>
	</clipPath>
	<path clip-path="url(#SVGID_2_)" fill="#00C18B" d="M1209.301,13.5H206.494C98.117,13.5,10.266,119.034,10.266,249.035v259.306
		v772.552v794.67c0,232.19,105.765,433.356,306.038,581.862c103.598,76.972,220.685,131.889,349.253,166.074
		c59.465-105.864,127.147-226.162,196.083-348.766c-123.128-16.393-227.817-57.439-317.617-124.121
		c-103.427-76.702-151.764-164.164-151.764-275.05v-559.146h817.042c108.461,0,196.326-105.374,196.326-235.524V249.035
		C1405.627,119.034,1317.762,13.5,1209.301,13.5"/>
</g>
</svg>
