<?xml version="1.0" encoding="utf-8"?>
<!-- Generator: Adobe Illustrator 16.0.4, SVG Export Plug-In . SVG Version: 6.00 Build 0)  -->
<!DOCTYPE svg PUBLIC "-//W3C//DTD SVG 1.1//EN" "http://www.w3.org/Graphics/SVG/1.1/DTD/svg11.dtd">
<svg version="1.1" id="Laag_1" xmlns="http://www.w3.org/2000/svg" xmlns:xlink="http://www.w3.org/1999/xlink" x="0px" y="0px"
	 width="841.89px" height="304px" viewBox="0 0 841.89 304" enable-background="new 0 0 841.89 304" xml:space="preserve">
<g>
	<g>
		<path fill="#00C18B" d="M402.426,107.576h-39.962c-4.319,0-7.82,4.206-7.82,9.386v10.333v30.787v31.668
			c0,9.253,4.215,17.27,12.196,23.188c4.128,3.067,8.794,5.256,13.918,6.618c2.37-4.219,5.067-9.013,7.814-13.898
			c-4.907-0.653-9.079-2.289-12.657-4.946c-4.122-3.057-6.048-6.542-6.048-10.961v-22.282h32.56c4.322,0,7.824-4.199,7.824-9.386
			v-41.12C410.25,111.781,406.748,107.576,402.426,107.576z"/>
	</g>
	<g>
		<g>
			<path d="M96.228,71.281v43.063c-2.186-1.916-4.786-3.518-7.79-4.819c-3.01-1.298-6.225-1.949-9.64-1.949
				c-3.147,0-6.047,0.448-8.714,1.335c-2.667,0.888-4.957,2.083-6.869,3.588c-1.916,1.505-3.454,3.281-4.616,5.33
				c-1.162,2.049-1.742,4.172-1.742,6.358v71.979c0,4.785,2.119,8.751,6.358,11.895c4.236,3.148,9.432,4.717,15.583,4.717
				c3.555,0,6.799-0.581,9.74-1.743c2.941-1.161,5.504-2.77,7.69-4.818v6.562h4.309V71.281H96.228z M96.228,196.166
				c0,3.69-1.709,6.838-5.127,9.435c-3.417,2.597-7.52,3.896-12.303,3.896c-4.919,0-9.058-1.299-12.406-3.896
				c-3.351-2.597-5.023-5.744-5.023-9.435v-71.979c0-3.554,1.672-6.666,5.023-9.329c3.348-2.67,7.486-3.999,12.406-3.999
				c4.783,0,8.886,1.329,12.303,3.999c3.418,2.663,5.127,5.774,5.127,9.329V196.166z"/>
			<path d="M105.664,217.903H91.101v-2.379c-0.225,0.097-0.452,0.189-0.679,0.28c-3.529,1.392-7.44,2.099-11.624,2.099
				c-7.254,0-13.526-1.926-18.641-5.728c-5.512-4.088-8.428-9.625-8.428-16.01v-71.979c0-3.076,0.811-6.066,2.408-8.886
				c1.487-2.62,3.475-4.92,5.91-6.834c2.364-1.86,5.197-3.348,8.417-4.42c6.737-2.242,15.095-2.213,22.004,0.771
				c0.212,0.092,0.422,0.185,0.632,0.28V66.155h14.562V217.903z M78.798,115.987c-3.768,0-6.78,0.941-9.208,2.88
				c-2.774,2.203-3.095,4.092-3.095,5.32v71.979c0,1.411,0.346,3.297,3.038,5.383c2.446,1.899,5.477,2.82,9.265,2.82
				c3.667,0,6.677-0.932,9.202-2.851c2.749-2.089,3.101-3.958,3.101-5.353v-71.979c0-1.215-0.327-3.084-3.151-5.285
				C85.438,116.939,82.445,115.987,78.798,115.987z"/>
		</g>
		<g>
			<path d="M167.078,208.061c-4.173,3.148-9.333,4.717-15.484,4.717s-11.349-1.568-15.584-4.717
				c-4.239-3.144-6.358-7.109-6.358-11.895v-71.979c0-2.186,0.581-4.309,1.743-6.358c1.161-2.049,2.7-3.825,4.616-5.33
				c1.913-1.505,4.203-2.7,6.869-3.588c2.667-0.887,5.567-1.335,8.715-1.335c3.007,0,5.844,0.448,8.511,1.335
				c2.667,0.888,4.953,2.083,6.869,3.588c1.913,1.505,3.451,3.281,4.613,5.33c1.162,2.049,1.746,4.172,1.746,6.358v32.399h-39.168
				v39.58c0,3.69,1.672,6.838,5.023,9.435c3.348,2.597,7.487,3.896,12.407,3.896c4.783,0,8.885-1.299,12.303-3.896
				s5.127-5.744,5.127-9.435v-10.868h4.309v10.868C173.333,200.951,171.247,204.917,167.078,208.061z M134.165,153.513h34.859
				v-29.325c0-3.554-1.709-6.666-5.127-9.329c-3.418-2.67-7.52-3.999-12.303-3.999c-4.92,0-9.059,1.329-12.407,3.999
				c-3.351,2.663-5.023,5.774-5.023,9.329V153.513z"/>
			<path d="M151.594,217.903c-7.254,0-13.526-1.926-18.641-5.728c-5.512-4.088-8.428-9.625-8.428-16.01v-71.979
				c0-3.076,0.812-6.066,2.408-8.886c1.487-2.62,3.475-4.92,5.91-6.834c2.365-1.86,5.197-3.348,8.418-4.42
				c6.251-2.083,13.971-2.158,20.463,0c3.213,1.069,6.045,2.557,8.418,4.42c2.437,1.917,4.421,4.216,5.906,6.834
				c1.601,2.823,2.412,5.814,2.412,8.886v37.526h-39.168v34.453c0,1.411,0.345,3.297,3.038,5.383c2.446,1.899,5.477,2.82,9.265,2.82
				c3.666,0,6.677-0.932,9.202-2.851c2.749-2.089,3.101-3.958,3.101-5.353v-15.995h14.562v15.995c0,6.367-2.869,11.895-8.294,15.986
				C165.107,215.968,158.859,217.903,151.594,217.903z M139.292,148.386h24.605v-24.199c0-1.215-0.327-3.084-3.151-5.285
				c-2.513-1.963-5.506-2.916-9.152-2.916c-3.768,0-6.781,0.941-9.209,2.88c-2.773,2.203-3.094,4.092-3.094,5.32V148.386z"/>
		</g>
		<g>
			<path d="M300.879,212.777l-35.68-47.987v47.987h-4.512V71.689h4.512v82.849c5.741-7.791,11.652-15.654,17.737-23.584
				c6.082-7.924,12.066-15.72,17.943-23.377h4.102l-39.372,52.088c6.422,8.611,12.984,17.466,19.686,26.555
				c6.695,9.095,13.257,17.946,19.686,26.559H300.879z"/>
			<path d="M315.207,217.903h-16.904l-27.977-37.626v37.626H255.56V66.562h14.766v72.51c2.831-3.759,5.684-7.515,8.543-11.239
				l19.482-25.383h16.932l-43.264,57.236c5.692,7.645,11.492,15.477,17.401,23.491c6.692,9.088,13.248,17.932,19.669,26.533
				L315.207,217.903z"/>
		</g>
		<g>
			<path d="M326.72,212.777V71.281h4.305v141.496H326.72z"/>
			<rect x="321.593" y="66.155" width="14.559" height="151.749"/>
		</g>
		<g>
			<path d="M432.939,212.777V107.576h4.513v6.769c2.052-1.916,4.579-3.518,7.586-4.819c3.007-1.298,6.288-1.949,9.847-1.949
				c4.372,0,8.268,0.925,11.688,2.771c3.415,1.842,6.081,4.136,7.997,6.869c1.775-2.871,4.439-5.194,7.997-6.973
				c3.555-1.776,7.517-2.667,11.892-2.667c3.008,0,5.845,0.448,8.512,1.335c2.667,0.888,4.99,2.083,6.973,3.588
				c1.979,1.505,3.555,3.281,4.716,5.33c1.162,2.049,1.746,4.172,1.746,6.358v88.59h-4.513v-88.59c0-1.775-0.48-3.488-1.435-5.127
				c-0.958-1.639-2.224-3.074-3.795-4.309c-1.573-1.228-3.418-2.183-5.538-2.871c-2.119-0.681-4.343-1.021-6.666-1.021
				c-5.056,0-9.262,1.329-12.609,3.999c-3.351,2.663-5.023,5.774-5.023,9.329v88.59h-4.513v-88.59c0-3.554-1.712-6.666-5.126-9.329
				c-3.418-2.67-7.521-3.999-12.303-3.999c-2.327,0-4.549,0.34-6.665,1.021c-2.123,0.688-3.97,1.643-5.538,2.871
				c-1.575,1.235-2.84,2.67-3.795,4.309c-0.957,1.639-1.435,3.352-1.435,5.127v88.59H432.939z"/>
			<path d="M521.531,217.903h-14.765v-93.716c0-0.859-0.241-1.694-0.738-2.546c-0.631-1.078-1.462-2.016-2.533-2.857
				c-1.075-0.841-2.41-1.526-3.952-2.026c-1.589-0.511-3.305-0.771-5.084-0.771c-3.904,0-6.981,0.941-9.412,2.88
				c-2.773,2.205-3.094,4.092-3.094,5.32v93.716h-14.766v-93.716c0-1.213-0.327-3.083-3.154-5.287
				c-2.51-1.961-5.501-2.914-9.148-2.914c-1.782,0-3.498,0.26-5.097,0.774c-1.532,0.497-2.863,1.18-3.945,2.027
				c-1.068,0.838-1.896,1.771-2.526,2.853c-0.498,0.853-0.738,1.684-0.738,2.546v93.716h-14.766V102.449h14.766v2.557
				c0.141-0.062,0.28-0.124,0.424-0.185c3.645-1.574,7.64-2.372,11.883-2.372c5.207,0,9.96,1.138,14.121,3.385
				c2.017,1.086,3.832,2.323,5.438,3.701c1.683-1.482,3.629-2.777,5.831-3.878c4.263-2.127,9.035-3.208,14.185-3.208
				c3.539,0,6.946,0.537,10.131,1.597c3.19,1.062,6.034,2.532,8.454,4.369c2.537,1.93,4.579,4.246,6.074,6.886
				c1.603,2.823,2.413,5.814,2.413,8.886V217.903z"/>
		</g>
		<g>
			<path d="M573.203,212.777c-3.007,0-5.844-0.41-8.512-1.229c-2.666-0.821-4.989-1.982-6.973-3.488
				c-1.982-1.506-3.555-3.281-4.716-5.334c-1.162-2.049-1.741-4.231-1.741-6.561V110.86h-12.101v-3.284h12.101V81.942h4.512v25.633
				h18.454v3.284h-18.454v85.306c0,3.69,1.809,6.838,5.434,9.435c3.621,2.597,8.027,3.896,13.227,3.896v2.256L573.203,212.777z"/>
			<path d="M575.055,217.903h-1.852c-3.498,0-6.869-0.491-10.014-1.451c-3.237-0.999-6.117-2.447-8.57-4.31
				c-2.534-1.923-4.58-4.242-6.079-6.892c-1.596-2.817-2.406-5.875-2.406-9.085v-80.179h-12.099v-13.538h12.099V76.815H560.9v25.634
				h18.454v13.538H560.9v80.179c0,1.354,0.373,3.177,3.293,5.266c2.754,1.977,6.105,2.938,10.24,2.938h5.128v9.786L575.055,217.903z
				"/>
		</g>
		<g>
			<path d="M633.595,208.061c-4.172,3.148-9.331,4.717-15.483,4.717c-6.15,0-11.348-1.568-15.583-4.717
				c-4.239-3.144-6.358-7.109-6.358-11.895v-71.979c0-2.186,0.58-4.309,1.742-6.358c1.162-2.049,2.7-3.825,4.616-5.33
				c1.912-1.505,4.201-2.7,6.868-3.588c2.667-0.887,5.567-1.335,8.715-1.335c3.008,0,5.845,0.448,8.512,1.335
				c2.667,0.888,4.952,2.083,6.868,3.588c1.913,1.505,3.452,3.281,4.612,5.33c1.162,2.049,1.746,4.172,1.746,6.358v71.979
				C639.85,200.951,637.765,204.917,633.595,208.061z M605.706,205.601c3.347,2.597,7.485,3.896,12.405,3.896
				c4.783,0,8.886-1.299,12.303-3.896c3.418-2.597,5.127-5.744,5.127-9.435v-71.979c0-3.554-1.709-6.666-5.127-9.329
				c-3.417-2.67-7.52-3.999-12.303-3.999c-4.92,0-9.059,1.329-12.405,3.999c-3.353,2.663-5.024,5.774-5.024,9.329v71.979
				C600.682,199.856,602.354,203.004,605.706,205.601z"/>
			<path d="M618.111,217.903c-7.256,0-13.527-1.926-18.642-5.728c-5.514-4.088-8.427-9.625-8.427-16.01v-71.979
				c0-3.076,0.811-6.066,2.41-8.886c1.485-2.62,3.471-4.92,5.907-6.834c2.363-1.86,5.197-3.348,8.418-4.42
				c6.251-2.083,13.972-2.163,20.464,0c3.214,1.069,6.044,2.557,8.418,4.42c2.436,1.917,4.422,4.216,5.904,6.834
				c1.601,2.823,2.412,5.814,2.412,8.886v71.979c0,6.367-2.867,11.895-8.294,15.986
				C631.626,215.968,625.377,217.903,618.111,217.903z M618.111,115.987c-3.768,0-6.778,0.941-9.209,2.88
				c-2.773,2.205-3.094,4.092-3.094,5.32v71.979c0,1.411,0.344,3.297,3.037,5.383c2.446,1.899,5.478,2.82,9.266,2.82
				c3.668,0,6.676-0.932,9.202-2.851c2.747-2.089,3.101-3.958,3.101-5.353v-71.979c0-1.215-0.327-3.084-3.15-5.285
				C624.75,116.939,621.76,115.987,618.111,115.987z"/>
		</g>
		<g>
			<path d="M706.391,208.061c-4.173,3.148-9.332,4.717-15.483,4.717s-11.349-1.568-15.584-4.717
				c-4.239-3.144-6.358-7.109-6.358-11.895v-71.979c0-2.186,0.58-4.309,1.742-6.358c1.162-2.049,2.7-3.825,4.616-5.33
				c1.912-1.505,4.202-2.7,6.869-3.588c2.667-0.887,5.566-1.335,8.715-1.335c3.007,0,5.844,0.448,8.511,1.335
				c2.667,0.888,4.953,2.083,6.869,3.588c1.912,1.505,3.451,3.281,4.613,5.33c1.161,2.049,1.744,4.172,1.744,6.358v71.979
				C712.645,200.951,710.56,204.917,706.391,208.061z M678.501,205.601c3.347,2.597,7.486,3.896,12.406,3.896
				c4.782,0,8.885-1.299,12.303-3.896s5.126-5.744,5.126-9.435v-71.979c0-3.554-1.708-6.666-5.126-9.329
				c-3.418-2.67-7.521-3.999-12.303-3.999c-4.92,0-9.06,1.329-12.406,3.999c-3.351,2.663-5.024,5.774-5.024,9.329v71.979
				C673.477,199.856,675.15,203.004,678.501,205.601z"/>
			<path d="M690.907,217.903c-7.256,0-13.528-1.926-18.641-5.728c-5.515-4.088-8.429-9.625-8.429-16.01v-71.979
				c0-3.076,0.812-6.066,2.41-8.886c1.485-2.62,3.472-4.92,5.908-6.834c2.363-1.86,5.196-3.348,8.417-4.42
				c6.252-2.083,13.972-2.163,20.464,0c3.214,1.069,6.044,2.557,8.418,4.42c2.436,1.917,4.422,4.216,5.904,6.834
				c1.602,2.823,2.413,5.814,2.413,8.886v71.979c0,6.367-2.868,11.895-8.295,15.986
				C704.422,215.968,698.174,217.903,690.907,217.903z M690.907,115.987c-3.769,0-6.779,0.941-9.21,2.88
				c-2.772,2.205-3.093,4.092-3.093,5.32v71.979c0,1.411,0.344,3.297,3.037,5.383c2.446,1.899,5.478,2.82,9.266,2.82
				c3.667,0,6.675-0.932,9.201-2.851c2.747-2.089,3.102-3.958,3.102-5.353v-71.979c0-1.215-0.327-3.084-3.151-5.285
				C697.546,116.939,694.555,115.987,690.907,115.987z"/>
		</g>
		<g>
			<path d="M741.764,212.777V107.576h4.513v6.769c2.049-1.916,4.579-3.518,7.587-4.819c3.003-1.298,6.284-1.949,9.842-1.949
				c3.008,0,5.845,0.448,8.512,1.335c2.666,0.888,4.953,2.083,6.869,3.588c1.912,1.505,3.451,3.281,4.612,5.33
				c1.162,2.049,1.746,4.172,1.746,6.358v88.59h-4.31v-88.59c0-3.554-1.709-6.666-5.126-9.329c-3.418-2.67-7.52-3.999-12.304-3.999
				c-4.92,0-9.059,1.329-12.406,3.999c-3.351,2.663-5.022,5.774-5.022,9.329v88.59H741.764z"/>
			<path d="M790.57,217.903h-14.562v-93.716c0-1.215-0.327-3.084-3.15-5.285c-2.514-1.963-5.505-2.916-9.153-2.916
				c-3.769,0-6.778,0.941-9.208,2.88c-2.774,2.205-3.095,4.092-3.095,5.32v93.716h-14.766V102.449h14.766v2.557
				c0.141-0.062,0.28-0.124,0.424-0.185c6.679-2.887,15.007-3.103,22.009-0.774c3.214,1.069,6.045,2.557,8.418,4.42
				c2.437,1.917,4.423,4.216,5.904,6.834c1.603,2.823,2.413,5.814,2.413,8.886V217.903z"/>
		</g>
	</g>
</g>
</svg>
